<?xml version="1.0" encoding="UTF-8"?>
<!--
  Snapshot Finance 앱 아이콘 소스 (1024×1024 square).
  카메라 + 지그재그 주가 라인 + 끝점 dot. SnapshotLogo 와 동일 디자인.
  app-icons 스킬로 PNG 세트(192/512/180/32) 생성용.
-->
<svg xmlns="http://www.w3.org/2000/svg" viewBox="0 0 1024 1024" width="1024" height="1024">
  <rect width="1024" height="1024" fill="#ffffff"/>
  <g transform="translate(192 192) scale(26.667)" fill="none" stroke="#0a7c4a" stroke-linecap="round" stroke-linejoin="round">
    <path d="M 4 8 h 4 l 1.2 -2 h 5.6 l 1.2 2 h 4 a 2 2 0 0 1 2 2 v 9 a 2 2 0 0 1 -2 2 h -16 a 2 2 0 0 1 -2 -2 v -9 a 2 2 0 0 1 2 -2 z" stroke-width="2"/>
    <path d="M 5.5 17.5 L 8 14.5 L 10.5 16 L 13 12.5 L 15.5 14 L 18.5 10" stroke-width="1.6"/>
    <circle cx="18.5" cy="10" r="1" fill="#0a7c4a" stroke="none"/>
  </g>
</svg>
